<svg id="Component_34" data-name="Component 34" xmlns="http://www.w3.org/2000/svg" width="233.501" height="21.766" viewBox="0 0 233.501 21.766">
  <g id="Layer_3" transform="translate(197.641 0)">
    <g id="Group_16" data-name="Group 16" transform="translate(0 0)">
      <g id="Group_13" data-name="Group 13">
        <g id="Group_12" data-name="Group 12">
          <path id="Path_26" data-name="Path 26" d="M18.8,3.7a5.343,5.343,0,0,1,2.2-2.067,4.886,4.886,0,0,1,4.823.689,4.372,4.372,0,0,1,1.516,4.2c.344,0,.551-.207.9-.344A4.585,4.585,0,0,1,33.271,7.76a4.223,4.223,0,0,1,.551,4.2,5.18,5.18,0,0,1-1.24,1.86l.138.138a4.7,4.7,0,0,1,4,3.1,4.405,4.405,0,0,1-1.171,4.685,4.292,4.292,0,0,1-3.651,1.24H5.989A4.46,4.46,0,0,1,1.442,20.23a4.574,4.574,0,0,1,.9-4.891A5.372,5.372,0,0,1,5.3,13.96,4.755,4.755,0,0,1,3.784,9.482,4.277,4.277,0,0,1,6.4,6.244a5,5,0,0,1,3.858.207h0A4.356,4.356,0,0,1,12.327,1.9a4.5,4.5,0,0,1,4.891.138A5.136,5.136,0,0,1,18.8,3.7Z" transform="translate(-1.092 -1.249)" fill="#fff"/>
          <g id="Group_11" data-name="Group 11" transform="translate(0.8 1.01)">
            <path id="Path_27" data-name="Path 27" d="M34.32,4.888a3.367,3.367,0,0,0-.965-1.24,3.657,3.657,0,0,0-4-.344A3.461,3.461,0,0,0,27.5,6.4h1.516a.918.918,0,0,0,.344.207c-.62.482-1.791.9-1.516,1.86l1.585,10.2h0L33.907,8.608A3.831,3.831,0,0,0,34.32,4.888Z" transform="translate(-10.107 -2.762)" fill="#645fa9"/>
            <path id="Path_28" data-name="Path 28" d="M21.143,18.481,23,6.838a3.692,3.692,0,0,0-.482-2.273A3.5,3.5,0,0,0,20.8,2.98a3.607,3.607,0,0,0-3.789.689,3.513,3.513,0,0,0-.9,3.651l4.547,10.2.482.965Z" transform="translate(-6.506 -2.715)" fill="#c8234a"/>
            <path id="Path_29" data-name="Path 29" d="M41.936,11.513a3.547,3.547,0,0,1-.207,3.514,8.774,8.774,0,0,1-1.722,1.516L30.5,23.087h0l.138-.344,5.029-11.3a3.62,3.62,0,0,1,3.651-1.86A4.35,4.35,0,0,1,41.936,11.513Z" transform="translate(-11.04 -4.84)" fill="#0088cf"/>
            <path id="Path_30" data-name="Path 30" d="M7.5,15.822,18.04,23.056h.138L12.942,11.482A3.715,3.715,0,0,0,8.464,9.9,3.591,3.591,0,0,0,6.4,12.309,2.863,2.863,0,0,0,7.5,15.822Z" transform="translate(-3.472 -4.878)" fill="#f26f21"/>
            <path id="Path_31" data-name="Path 31" d="M44.054,27.041a3.618,3.618,0,0,0,.482-3.514,3.51,3.51,0,0,0-1.86-1.86,3.713,3.713,0,0,0-3.307.207L30,28.349H41.23A3.651,3.651,0,0,0,44.054,27.041Z" transform="translate(-10.885 -8.518)" fill="#0db04b"/>
            <path id="Path_32" data-name="Path 32" d="M17.1,28.287,7.728,21.674a3.713,3.713,0,0,0-3.307-.207,3.51,3.51,0,0,0-1.86,1.86,3.251,3.251,0,0,0,.482,3.514,3.56,3.56,0,0,0,2.893,1.378Z" transform="translate(-2.254 -8.456)" fill="#fcb813"/>
          </g>
        </g>
      </g>
    </g>
  </g>
  <g id="Group_1434" data-name="Group 1434" transform="translate(78.863 1.832)">
    <g id="Group_14" data-name="Group 14" transform="translate(0 0)">
      <path id="Path_33" data-name="Path 33" d="M75.773,10.47c-.482-2.067-2.067-2.618-4-2.756-6.063-.551-7.1,4-7.1,5.925,0,3.307.9,5.925,6.889,5.925,1.171,0,4.134-1.171,4.134-2.962h8.612c-.344,5.511-9.507,6.752-13.5,6.752-8.267,0-15.363-1.516-15.019-9.714C56,7.783,61.513,3.718,72.467,3.994c6.063.138,11.918,2.067,11.918,6.407H75.773Z" transform="translate(-55.783 -3.912)" fill="#fff"/>
      <path id="Path_34" data-name="Path 34" d="M200.373,10.439c-.482-2.067-2.067-2.618-4-2.756-6.063-.551-7.1,4-7.1,5.856,0,3.307.9,5.925,6.889,5.925,1.171,0,4.134-1.171,4.134-2.962h8.612c-.344,5.511-9.507,6.752-13.5,6.752-8.267,0-15.363-1.516-15.019-9.714.207-5.856,5.718-9.921,16.672-9.645,6.063.138,11.987,2.067,11.987,6.407h-8.68v.138Z" transform="translate(-94.542 -3.881)" fill="#fff"/>
      <path id="Path_35" data-name="Path 35" d="M99.6,4.6h11.092L120.2,17.9h.138V4.6h7.1V22.994H116.823L106.9,9.7h-.138v13.3H99.6Z" transform="translate(-69.413 -4.105)" fill="#fff"/>
      <path id="Path_36" data-name="Path 36" d="M143.1,4.6h13.5c6.545,0,10.265,1.86,10.265,4.547,0,1.585-1.585,3.651-5.167,4.2h0c4.2.207,5.856,2.962,5.856,4.547,0,3.307-3.651,5.029-10.954,5.029H143.1Zm7.923,7.234H153.3c3.445,0,5.236-.207,5.236-1.722s-1.516-2.067-4.547-2.067h-2.893v3.789Zm0,7.44H153.3c4.134,0,5.718-.482,5.718-1.86,0-1.516-1.929-2.067-5.029-2.067h-2.893v3.858h-.069Z" transform="translate(-82.945 -4.105)" fill="#fff"/>
    </g>
  </g>
  <g id="Group_1435" data-name="Group 1435" transform="translate(0 6.605)">
    <path id="Path_3285" data-name="Path 3285" d="M359.212,571.614h6.37v-1.981h-6.457c-3.226,0-4.812,1.371-4.812,3.6a2.674,2.674,0,0,0,.7,2H344.685v-4.284H342.14v8.473c0,.661-.338.88-1.133.88h-1.132v1.98h1.7a3.723,3.723,0,0,0,2.407-.55,2.047,2.047,0,0,0,.708-1.871v-2.64l20.885.005v-1.985h-6.361c-2.944,0-2.9-3.63,0-3.63" transform="translate(-293.393 -568.392)" fill="#fff"/>
    <path id="Path_3286" data-name="Path 3286" d="M199.085,572.634H185.109v-4.292h-2.548v4.292H168.05l.006-6.488h-2.549l0,1.98h-5.919c-3.172,0-4.348,1.275-4.348,3.381,0,2.079,1.679,3.107,4.335,3.107h5.25a3.967,3.967,0,0,1,.683-.356,4.009,4.009,0,0,1,.682.356h35.449v-6.272h-2.548Zm-33.583,0h-5.083c-1.649,0-2.434-.306-2.434-1.219,0-1.007.785-1.312,2.434-1.312H165.5Z" transform="translate(-155.234 -565.783)" fill="#fff"/>
    <path id="Path_3287" data-name="Path 3287" d="M331.2,603.7a.839.839,0,1,0,.839.839.839.839,0,0,0-.839-.839" transform="translate(-286.277 -593.885)" fill="#fff"/>
    <path id="Path_3288" data-name="Path 3288" d="M270.536,603.7a.839.839,0,1,0,.839.839.839.839,0,0,0-.839-.839" transform="translate(-240.883 -593.885)" fill="#fff"/>
    <path id="Path_3289" data-name="Path 3289" d="M262.036,603.7a.839.839,0,1,0,.839.839.839.839,0,0,0-.839-.839" transform="translate(-234.523 -593.885)" fill="#fff"/>
    <path id="Path_3290" data-name="Path 3290" d="M183.036,566.381a.839.839,0,1,0-.839-.839.839.839,0,0,0,.839.839" transform="translate(-175.41 -564.703)" fill="#fff"/>
    <path id="Path_3291" data-name="Path 3291" d="M174.536,566.381a.839.839,0,1,0-.839-.839.839.839,0,0,0,.839.839" transform="translate(-169.049 -564.703)" fill="#fff"/>
  </g>
</svg>
