<svg xmlns="http://www.w3.org/2000/svg" width="39.722" height="38.46" viewBox="0 0 39.722 38.46">
  <g id="Group_830" data-name="Group 830" transform="translate(1902.498 4876.5)">
    <g id="Group_479" data-name="Group 479" transform="translate(-1902.498 -4876.5)">
      <g id="Layer_3" transform="translate(0 0)">
        <g id="Group_16" data-name="Group 16">
          <g id="Group_13" data-name="Group 13">
            <g id="Group_12" data-name="Group 12">
              <path id="Path_26" data-name="Path 26" d="M20.516,3.932a5.86,5.86,0,0,1,2.418-2.267,5.359,5.359,0,0,1,5.289.756A4.8,4.8,0,0,1,29.886,7.03c.378,0,.6-.227.982-.378A5.029,5.029,0,0,1,36.383,8.39a4.631,4.631,0,0,1,.6,4.609,5.681,5.681,0,0,1-1.36,2.04l.151.151a5.152,5.152,0,0,1,4.382,3.4,4.832,4.832,0,0,1-1.284,5.138,4.707,4.707,0,0,1-4,1.36H6.463c-2.418,0-4.156-.982-4.987-3.022A5.016,5.016,0,0,1,2.458,16.7,5.892,5.892,0,0,1,5.707,15.19a5.216,5.216,0,0,1-1.662-4.911A4.691,4.691,0,0,1,6.916,6.728a5.482,5.482,0,0,1,4.231.227h0a4.778,4.778,0,0,1,2.267-4.987,4.936,4.936,0,0,1,5.365.151A5.633,5.633,0,0,1,20.516,3.932Z" transform="translate(-1.092 -1.249)" fill="#fff"/>
              <g id="Group_11" data-name="Group 11" transform="translate(0.877 1.108)">
                <path id="Path_27" data-name="Path 27" d="M34.98,5.083a3.693,3.693,0,0,0-1.058-1.36,4.011,4.011,0,0,0-4.382-.378,3.8,3.8,0,0,0-2.04,3.4h1.662a1.006,1.006,0,0,0,.378.227c-.68.529-1.964.982-1.662,2.04l1.738,11.183h0L34.527,9.163A4.2,4.2,0,0,0,34.98,5.083Z" transform="translate(-8.424 -2.752)" fill="#645fa9"/>
                <path id="Path_28" data-name="Path 28" d="M21.648,20.006l2.04-12.769a4.049,4.049,0,0,0-.529-2.493A3.836,3.836,0,0,0,21.27,3.006a3.956,3.956,0,0,0-4.156.756,3.853,3.853,0,0,0-.982,4l4.987,11.183.529,1.058Z" transform="translate(-5.595 -2.715)" fill="#c8234a"/>
                <path id="Path_29" data-name="Path 29" d="M43.043,11.7a3.89,3.89,0,0,1-.227,3.853,9.623,9.623,0,0,1-1.889,1.662L30.5,24.4h0l.151-.378,5.516-12.392a3.971,3.971,0,0,1,4-2.04A4.771,4.771,0,0,1,43.043,11.7Z" transform="translate(-9.158 -4.385)" fill="#0088cf"/>
                <path id="Path_30" data-name="Path 30" d="M7.628,16.417l11.56,7.934h.151L13.6,11.657A4.074,4.074,0,0,0,8.686,9.919a3.938,3.938,0,0,0-2.267,2.645A3.14,3.14,0,0,0,7.628,16.417Z" transform="translate(-3.211 -4.415)" fill="#f26f21"/>
                <path id="Path_31" data-name="Path 31" d="M45.414,27.589a3.968,3.968,0,0,0,.529-3.853A3.85,3.85,0,0,0,43.9,21.7a4.072,4.072,0,0,0-3.627.227L30,29.025H42.316A4,4,0,0,0,45.414,27.589Z" transform="translate(-9.035 -7.275)" fill="#0db04b"/>
                <path id="Path_32" data-name="Path 32" d="M18.533,28.976,8.258,21.722A4.072,4.072,0,0,0,4.631,21.5a3.85,3.85,0,0,0-2.04,2.04,3.566,3.566,0,0,0,.529,3.853A3.9,3.9,0,0,0,6.293,28.9Z" transform="translate(-2.254 -7.226)" fill="#fcb813"/>
              </g>
            </g>
          </g>
        </g>
      </g>
    </g>
    <g id="Group_535" data-name="Group 535" transform="translate(-1902.177 -4850.979)">
      <path id="Path_3293" data-name="Path 3293" d="M95.979,484.562c-.145-.7-.723-.89-1.369-.95a2.008,2.008,0,0,0-2.459,2.025c0,1.126.33,2.049,2.38,2.049.378,0,1.421-.38,1.421-1.012H98.9C98.783,488.547,95.63,489,94.255,489c-2.849,0-5.289-.53-5.17-3.334.084-2,1.977-3.407,5.743-3.319,2.1.049,4.115.7,4.124,2.219Z" transform="translate(-89.08 -482.339)" fill="#fff"/>
      <path id="Path_3294" data-name="Path 3294" d="M409.891,484.562c-.145-.7-.722-.89-1.369-.95a2.008,2.008,0,0,0-2.459,2.025c0,1.126.329,2.049,2.379,2.049.378,0,1.422-.38,1.422-1.012h2.948c-.119,1.874-3.272,2.323-4.647,2.323-2.849,0-5.288-.53-5.17-3.334.084-2,1.977-3.407,5.743-3.319,2.1.049,4.115.7,4.125,2.219Z" transform="translate(-373.462 -482.339)" fill="#fff"/>
      <path id="Path_3295" data-name="Path 3295" d="M199.61,483.809h3.827l3.265,4.575h.027v-4.575h2.453v6.352h-3.667l-3.426-4.575h-.026v4.575H199.61Z" transform="translate(-189.213 -483.671)" fill="#fff"/>
      <path id="Path_3296" data-name="Path 3296" d="M309.42,483.809h4.649c2.234,0,3.548.624,3.548,1.566,0,.556-.55,1.243-1.776,1.445v.018c1.477.088,2.021,1.021,2.021,1.58,0,1.119-1.281,1.743-3.78,1.743H309.42Zm2.691,2.467h.771c1.187,0,1.817-.092,1.817-.585,0-.528-.524-.7-1.592-.7h-.995Zm0,2.553h.771c1.431,0,1.956-.15,1.956-.642,0-.528-.663-.7-1.731-.7h-.995Z" transform="translate(-288.693 -483.671)" fill="#fff"/>
      <path id="Path_3297" data-name="Path 3297" d="M347.1,570.373h2.38v-.74h-2.413c-1.205,0-1.8.512-1.8,1.347a1,1,0,0,0,.26.746h-3.858v-1.6h-.951v3.166c0,.247-.126.329-.423.329h-.423v.74h.635a1.392,1.392,0,0,0,.9-.205.765.765,0,0,0,.264-.7v-.987l7.8,0v-.742H347.1c-1.1,0-1.085-1.356,0-1.356" transform="translate(-316.283 -561.422)" fill="#fff"/>
      <path id="Path_3298" data-name="Path 3298" d="M171.62,568.57H166.4v-1.6h-.952v1.6h-5.422l0-2.424h-.953l0,.74h-2.212c-1.185,0-1.625.477-1.625,1.263s.628,1.161,1.62,1.161h1.962a1.483,1.483,0,0,1,.255-.133,1.5,1.5,0,0,1,.255.133h13.246v-2.343h-.952Zm-12.549,0h-1.9c-.616,0-.91-.115-.91-.455,0-.376.294-.49.91-.49h1.9Z" transform="translate(-149.011 -558.263)" fill="#fff"/>
      <path id="Path_3299" data-name="Path 3299" d="M330.678,603.7a.314.314,0,1,0,.314.314.314.314,0,0,0-.314-.314" transform="translate(-307.667 -592.287)" fill="#fff"/>
      <path id="Path_3300" data-name="Path 3300" d="M270.01,603.7a.314.314,0,1,0,.314.314.314.314,0,0,0-.314-.314" transform="translate(-252.707 -592.287)" fill="#fff"/>
      <path id="Path_3301" data-name="Path 3301" d="M261.51,603.7a.314.314,0,1,0,.314.314.314.314,0,0,0-.314-.314" transform="translate(-245.006 -592.287)" fill="#fff"/>
      <path id="Path_3302" data-name="Path 3302" d="M182.511,565.33a.313.313,0,1,0-.314-.313.313.313,0,0,0,.314.313" transform="translate(-173.437 -556.955)" fill="#fff"/>
      <path id="Path_3303" data-name="Path 3303" d="M174.011,565.33a.313.313,0,1,0-.314-.313.313.313,0,0,0,.314.313" transform="translate(-165.737 -556.955)" fill="#fff"/>
    </g>
  </g>
</svg>
