<svg enable-background="new -0.963 -0.491 51 52" height="319.312988" viewBox="-.963 -.491 51 52" width="313.172354" xmlns="http://www.w3.org/2000/svg" xmlns:xlink="http://www.w3.org/1999/xlink"><clipPath id="a"><path d="m0 0h49.85v51.501h-49.85z"/></clipPath><clipPath id="b"><path d="m0 0h49.85v51.501h-49.85z"/></clipPath><path clip-path="url(#a)" d="m48.883 31.649c.117.232.217.498.217.797h-3.513c-.334-.731-1.116-.98-1.848-1.047-1.033-.033-1.931.282-2.548 1.146-.435.681-.483 1.627-.184 2.391.316.682.999 1.346 1.732 1.512 1.165.266 2.363-.149 3.029-1.213h3.414c-.866 2.459-3.647 2.906-6.045 2.955-2.314-.016-4.712-.464-5.877-2.64-.633-1.063-.383-2.64.233-3.638 2.081-2.606 5.76-2.656 8.841-2.041.968.3 2.033.78 2.549 1.778" fill="#231f20"/><path clip-path="url(#a)" d="m7.443 29.788c-2.548-.149-5.378.3-6.96 2.541-.615 1.113-.615 2.758.1 3.82 2.048 2.756 6.16 2.573 9.157 1.776 1.033-.465 2.332-1.312 2.547-2.491h-3.379c-.566.83-1.415 1.346-2.398 1.313-.948.05-1.765-.531-2.247-1.279-.433-.714-.482-1.811-.066-2.541.433-.646 1.082-1.113 1.798-1.261 1.016-.117 2.181.016 2.697.995h3.513c0-.332-.15-.598-.266-.863-1.017-1.544-2.781-1.876-4.496-2.01" fill="#231f20"/><path d="m13.17 29.854v8.37h3.122l-.008-5.298 3.979 5.314h4.699l.013-8.369h-3.146v5.115l-.067.032c-1.364-1.711-2.696-3.438-4.012-5.165h-4.58" fill="#231f20"/><path d="m36.412 34.804c-.333-.615-1.032-.83-1.581-1.096.383-.249.749-.549 1.116-.897.232-.331.315-.764.232-1.196-.3-1.211-1.57-1.631-2.664-1.765h-7.559l.005 8.375h6.954c1.449-.067 2.997-.415 3.63-1.893.167-.482.068-1.08-.133-1.528m-7.008-3.304c.005.021 2.305-.206 2.846.166.2.147.225.444.102.663-.374.436-2.927.313-2.947.308v-1.137zm3.364 4.084c-.334.715-1.283.499-2.016.549l-1.354-.015.006-1.43c1.064.065 2.247-.168 3.18.215.216.199.216.416.184.681z" fill="#231f20"/><path clip-path="url(#b)" d="m14.431 10.364 7.217 16.508-14.889-10.197c-3.735-2.475-2.977-6.713-.907-8.581 2.926-2.476 7.065-1.617 8.579 2.27" fill="#f36f21"/><path clip-path="url(#b)" d="m24.323 6.477-2.625 18.478-7.468-17.568c-1.616-4.392 2.016-7.271 4.438-7.321 2.779-.303 6.26 1.817 5.655 6.411" fill="#c9234a"/><path clip-path="url(#b)" d="m35.679 7.335-7.419 17.619-2.373-15.902c-.2-2.423 1.313-2.473 1.867-2.928-.099-.352-.857-.352-.857-.352h-1.412c-.152-4.142 3.079-5.959 5.703-5.758 2.826.102 6.005 3.383 4.491 7.321" fill="#635faa"/><path clip-path="url(#b)" d="m43.251 16.575-14.89 10.246 7.016-16.306c2.119-5.149 7.065-4.139 8.832-2.17 1.918 1.92 2.473 5.806-.958 8.23" fill="#0089cf"/><path clip-path="url(#b)" d="m44.814 28.638h-17.21l13.98-9.74c3.432-2.272 7.067-.203 8.024 2.775 1.012 3.332-1.26 6.965-4.794 6.965" fill="#04b14b"/><path clip-path="url(#b)" d="m.248 21.472c1.313-3.434 4.947-4.645 8.176-2.574l13.98 9.74h-16.957c-3.533 0-6.31-3.231-5.199-7.166" fill="#fdb813"/><g fill="#04b14b"><path d="m30.65 47.892c.372 0 .675.303.675.676s-.303.676-.675.676c-.373 0-.676-.303-.676-.676s.303-.676.676-.676"/><path d="m20.717 47.892c.373 0 .677.303.677.676s-.304.676-.677.676-.675-.303-.675-.676.302-.676.675-.676"/><path d="m18.471 47.892c.373 0 .677.303.677.676s-.304.676-.677.676-.675-.303-.675-.676.302-.676.675-.676"/><path d="m5.334 39.172c.373 0 .675.303.675.676s-.302.675-.675.675-.675-.302-.675-.675.302-.676.675-.676"/><path d="m3.088 39.172c.373 0 .675.303.675.676s-.302.675-.675.675-.675-.302-.675-.675.302-.676.675-.676"/><path d="m31.715 41.516h-1.906v3.698c-.732 0-4.79 0-9.268 0v-3.905h-1.906v3.905c-3.446 0-6.899 0-9.086 0-.24 0-.468 0-.677 0v-5.653h-1.906v1.608h-4.003l-.058.007c-.985.12-2.85.892-2.85 2.946 0 2.119 1.872 2.885 2.862 2.992l.053.006h28.745zm-29.753 2.606c0-.801.873-1.004 1.136-1.047h3.868v2.139c-1.764 0-3.795 0-3.873 0-.253-.038-1.131-.233-1.131-1.092z"/><path d="m45.085 45.214s-.092 0-.256 0c-.404-.01-1.371-.182-1.371-1.553 0-1.377.967-1.549 1.381-1.559h4.397v-1.906h-4.407c-1.317 0-3.276.924-3.276 3.465 0 .607.113 1.121.302 1.553-2.573 0-5.894 0-6.829 0 0-1.205 0-3.698 0-3.698h-1.906v5.604 2.475c-.393 0-1.54 0-1.54 0v1.906h1.811c.634 0 1.636-.503 1.636-1.854v-2.527h14.212v-1.906z"/></g></svg>