<svg id="Group_614" data-name="Group 614" xmlns="http://www.w3.org/2000/svg" width="20.549" height="19.667" viewBox="0 0 20.549 19.667">
  <g id="Group_613" data-name="Group 613" transform="translate(0)">
    <g id="Path_3219" data-name="Path 3219" fill="none">
      <path d="M8.378,0A8.378,8.378,0,1,1,0,8.378,8.378,8.378,0,0,1,8.378,0Z" stroke="none"/>
      <path d="M 8.377646446228027 1.999996185302734 C 4.860996246337891 1.999996185302734 1.999996185302734 4.860996246337891 1.999996185302734 8.377646446228027 C 1.999996185302734 11.89429664611816 4.860996246337891 14.75529670715332 8.377646446228027 14.75529670715332 C 11.89429664611816 14.75529670715332 14.75529670715332 11.89429664611816 14.75529670715332 8.377646446228027 C 14.75529670715332 4.860996246337891 11.89429664611816 1.999996185302734 8.377646446228027 1.999996185302734 M 8.377646446228027 -3.814697265625e-06 C 13.00449657440186 -3.814697265625e-06 16.75529670715332 3.750796318054199 16.75529670715332 8.377646446228027 C 16.75529670715332 13.00449657440186 13.00449657440186 16.75529670715332 8.377646446228027 16.75529670715332 C 3.750796318054199 16.75529670715332 -3.814697265625e-06 13.00449657440186 -3.814697265625e-06 8.377646446228027 C -3.814697265625e-06 3.750796318054199 3.750796318054199 -3.814697265625e-06 8.377646446228027 -3.814697265625e-06 Z" stroke="none" fill="#002f6c"/>
    </g>
    <line id="Line_6" data-name="Line 6" x1="5.291" y1="5.291" transform="translate(14.551 13.669)" fill="none" stroke="#002f6c" stroke-width="2"/>
  </g>
</svg>
