<svg xmlns="http://www.w3.org/2000/svg" width="73.694" height="71.353" viewBox="0 0 73.694 71.353">
  <g id="Group_566" data-name="Group 566" transform="translate(1902.498 4876.5)">
    <g id="Group_479" data-name="Group 479" transform="translate(-1902.498 -4876.5)">
      <g id="Layer_3" transform="translate(0 0)">
        <g id="Group_16" data-name="Group 16">
          <g id="Group_13" data-name="Group 13">
            <g id="Group_12" data-name="Group 12">
              <path id="Path_26" data-name="Path 26" d="M37.129,6.227a10.871,10.871,0,0,1,4.486-4.205,9.942,9.942,0,0,1,9.812,1.4,8.9,8.9,0,0,1,3.084,8.551c.7,0,1.121-.421,1.822-.7A9.33,9.33,0,0,1,66.566,14.5a8.592,8.592,0,0,1,1.121,8.551,10.539,10.539,0,0,1-2.523,3.785l.28.28a9.558,9.558,0,0,1,8.13,6.308,8.964,8.964,0,0,1-2.383,9.532,8.733,8.733,0,0,1-7.429,2.523H11.056c-4.486,0-7.71-1.822-9.252-5.607a9.307,9.307,0,0,1,1.822-9.953,10.93,10.93,0,0,1,6.028-2.8A9.676,9.676,0,0,1,6.57,18,8.7,8.7,0,0,1,11.9,11.413a10.171,10.171,0,0,1,7.85.421h0a8.864,8.864,0,0,1,4.205-9.252,9.157,9.157,0,0,1,9.953.28A10.45,10.45,0,0,1,37.129,6.227Z" transform="translate(-1.092 -1.249)" fill="#fff"/>
              <g id="Group_11" data-name="Group 11" transform="translate(1.628 2.055)">
                <path id="Path_27" data-name="Path 27" d="M41.378,6.978a6.851,6.851,0,0,0-1.962-2.523,7.442,7.442,0,0,0-8.13-.7A7.043,7.043,0,0,0,27.5,10.062h3.084a1.867,1.867,0,0,0,.7.421c-1.262.981-3.645,1.822-3.084,3.785l3.224,20.746h0l9.112-20.466C41.938,12.165,42.639,9.361,41.378,6.978Z" transform="translate(7.89 -2.653)" fill="#645fa9"/>
                <path id="Path_28" data-name="Path 28" d="M26.544,34.795,30.329,11.1a7.512,7.512,0,0,0-.981-4.626,7.117,7.117,0,0,0-3.5-3.224,7.339,7.339,0,0,0-7.71,1.4,7.147,7.147,0,0,0-1.822,7.429l9.252,20.746.981,1.962Z" transform="translate(3.239 -2.715)" fill="#c8234a"/>
                <path id="Path_29" data-name="Path 29" d="M53.769,13.546a7.217,7.217,0,0,1-.421,7.149c-.981,1.4-2.383,2.1-3.5,3.084L30.5,37.1h0l.28-.7L41.013,13.406a7.367,7.367,0,0,1,7.429-3.785A8.852,8.852,0,0,1,53.769,13.546Z" transform="translate(9.095 0.031)" fill="#0088cf"/>
                <path id="Path_30" data-name="Path 30" d="M8.875,22.188,30.323,36.907h.28L19.95,13.357a7.558,7.558,0,0,0-9.112-3.224,7.306,7.306,0,0,0-4.205,4.906A5.826,5.826,0,0,0,8.875,22.188Z" transform="translate(-0.68 0.08)" fill="#f26f21"/>
                <path id="Path_31" data-name="Path 31" d="M58.6,32.906c1.682-1.822,1.822-5.187.981-7.149a7.142,7.142,0,0,0-3.785-3.785,7.554,7.554,0,0,0-6.729.421L30,35.569H52.849A7.428,7.428,0,0,0,58.6,32.906Z" transform="translate(8.894 4.781)" fill="#0db04b"/>
                <path id="Path_32" data-name="Path 32" d="M32.457,35.65,13.393,22.192a7.554,7.554,0,0,0-6.729-.421,7.142,7.142,0,0,0-3.785,3.785,6.616,6.616,0,0,0,.981,7.149,7.243,7.243,0,0,0,5.887,2.8Z" transform="translate(-2.254 4.701)" fill="#fcb813"/>
              </g>
            </g>
          </g>
        </g>
      </g>
    </g>
    <g id="Group_535" data-name="Group 535" transform="translate(-1901.902 -4829.152)">
      <path id="Path_3293" data-name="Path 3293" d="M101.88,486.463c-.269-1.306-1.341-1.652-2.539-1.762-3.874-.358-4.562,2.535-4.562,3.756,0,2.089.612,3.8,4.415,3.8.7,0,2.637-.705,2.637-1.878h5.47c-.22,3.476-6.07,4.309-8.621,4.309-5.286,0-9.812-.983-9.592-6.186.157-3.713,3.668-6.32,10.655-6.158,3.894.091,7.635,1.3,7.651,4.117Z" transform="translate(-89.08 -482.339)" fill="#1c1c1c"/>
      <path id="Path_3294" data-name="Path 3294" d="M415.791,486.463c-.269-1.306-1.34-1.652-2.539-1.762-3.874-.358-4.561,2.535-4.561,3.756,0,2.089.611,3.8,4.414,3.8.7,0,2.638-.705,2.638-1.878h5.469c-.22,3.476-6.07,4.309-8.621,4.309-5.286,0-9.811-.983-9.592-6.186.156-3.713,3.668-6.32,10.654-6.158,3.895.091,7.635,1.3,7.652,4.117Z" transform="translate(-348.208 -482.339)" fill="#1c1c1c"/>
      <path id="Path_3295" data-name="Path 3295" d="M199.61,483.809h7.1l6.058,8.487h.05v-8.487h4.55v11.784h-6.8l-6.356-8.487h-.048v8.487H199.61Z" transform="translate(-180.321 -483.552)" fill="#1c1c1c"/>
      <path id="Path_3296" data-name="Path 3296" d="M309.42,483.809h8.624c4.146,0,6.582,1.157,6.582,2.9,0,1.032-1.02,2.306-3.3,2.68v.034c2.74.163,3.75,1.894,3.75,2.931,0,2.077-2.376,3.234-7.012,3.234H309.42Zm4.992,4.578h1.43c2.2,0,3.37-.171,3.37-1.085,0-.979-.972-1.306-2.954-1.306h-1.846Zm0,4.736h1.43c2.654,0,3.628-.279,3.628-1.192,0-.98-1.229-1.306-3.212-1.306h-1.846Z" transform="translate(-270.966 -483.553)" fill="#1c1c1c"/>
      <path id="Path_3297" data-name="Path 3297" d="M353.281,571.006H357.7v-1.373H353.22c-2.236,0-3.336.95-3.336,2.5a1.853,1.853,0,0,0,.483,1.385H343.21v-2.97h-1.765v5.873c0,.458-.234.61-.785.61h-.785V578.4h1.177a2.583,2.583,0,0,0,1.669-.381,1.419,1.419,0,0,0,.491-1.3v-1.83l14.479,0v-1.376h-4.41c-2.041,0-2.013-2.516,0-2.516" transform="translate(-296.107 -554.399)" fill="#1c1c1c"/>
      <path id="Path_3298" data-name="Path 3298" d="M185.633,570.644h-9.689v-2.975h-1.766v2.975h-10.06l0-4.5h-1.767l0,1.373h-4.1c-2.2,0-3.014.884-3.014,2.344,0,1.441,1.164,2.154,3.005,2.154h3.639a2.751,2.751,0,0,1,.474-.247,2.779,2.779,0,0,1,.473.247H187.4v-4.348h-1.766Zm-23.281,0h-3.524c-1.143,0-1.687-.212-1.687-.845,0-.7.545-.909,1.687-.909h3.524Z" transform="translate(-143.689 -551.521)" fill="#1c1c1c"/>
      <path id="Path_3299" data-name="Path 3299" d="M330.946,603.7a.582.582,0,1,0,.582.582.582.582,0,0,0-.582-.582" transform="translate(-288.256 -582.523)" fill="#1c1c1c"/>
      <path id="Path_3300" data-name="Path 3300" d="M270.279,603.7a.582.582,0,1,0,.582.582.582.582,0,0,0-.582-.582" transform="translate(-238.176 -582.523)" fill="#1c1c1c"/>
      <path id="Path_3301" data-name="Path 3301" d="M261.779,603.7a.582.582,0,1,0,.582.582.582.582,0,0,0-.582-.582" transform="translate(-231.159 -582.523)" fill="#1c1c1c"/>
      <path id="Path_3302" data-name="Path 3302" d="M182.779,565.866a.582.582,0,1,0-.582-.582.582.582,0,0,0,.582.582" transform="translate(-165.946 -550.329)" fill="#1c1c1c"/>
      <path id="Path_3303" data-name="Path 3303" d="M174.279,565.866a.582.582,0,1,0-.582-.582.582.582,0,0,0,.582.582" transform="translate(-158.93 -550.329)" fill="#1c1c1c"/>
    </g>
  </g>
</svg>
